<svg width="746.7" height="75.201" viewBox="0 0 746.7 75.201" xmlns="http://www.w3.org/2000/svg"><g id="svgGroup" stroke-linecap="round" fill-rule="evenodd" font-size="9pt" stroke="#000" stroke-width="0.25mm" fill="none" style="stroke:#fff;stroke-width:0.35mm;fill:black"><path d="M 8.1 74.8 L 0 71.5 L 27.4 4 L 37.8 4 L 64.8 71.5 L 56.1 75 L 48.3 55 L 15.9 55 L 8.1 74.8 Z M 32.1 13.4 L 18.9 47 L 45.2 47 L 32.1 13.4 Z" id="0" vector-effect="non-scaling-stroke"/><path d="M 73.8 74 L 73.8 0 L 82.8 0 L 82.8 27.4 A 17.447 17.447 0 0 1 83.771 26.418 Q 84.285 25.936 84.888 25.436 A 29.965 29.965 0 0 1 85.3 25.1 A 19.429 19.429 0 0 1 87.969 23.315 A 22.041 22.041 0 0 1 88.65 22.95 A 18.788 18.788 0 0 1 91.138 21.899 A 23.04 23.04 0 0 1 92.8 21.4 A 18.56 18.56 0 0 1 96.071 20.865 A 22.623 22.623 0 0 1 97.8 20.8 Q 102.3 20.8 106.45 22.6 Q 110.6 24.4 113.75 27.8 A 23.706 23.706 0 0 1 117.346 32.952 A 29.885 29.885 0 0 1 118.8 36.2 Q 120.7 41.2 120.7 47.5 A 33.315 33.315 0 0 1 120.013 54.388 A 27.75 27.75 0 0 1 118.7 58.8 A 30.149 30.149 0 0 1 115.692 64.609 A 25.829 25.829 0 0 1 113.4 67.55 Q 110.1 71.2 105.85 73.2 A 20.584 20.584 0 0 1 99.254 75.09 A 19.225 19.225 0 0 1 97.2 75.2 A 22.394 22.394 0 0 1 89.277 73.805 A 21.462 21.462 0 0 1 88.75 73.6 Q 84.8 72 82.2 69.7 L 82.2 74 L 73.8 74 Z M 82.8 35.4 L 82.8 63.2 A 17.99 17.99 0 0 0 86.43 65.385 A 21.802 21.802 0 0 0 88.2 66.1 A 19.462 19.462 0 0 0 94.364 67.196 A 22.039 22.039 0 0 0 94.8 67.2 A 16.26 16.26 0 0 0 100.618 66.166 A 15.526 15.526 0 0 0 101.5 65.8 Q 104.6 64.4 106.8 61.85 A 17.95 17.95 0 0 0 109.542 57.514 A 21.678 21.678 0 0 0 110.25 55.75 A 21.806 21.806 0 0 0 111.322 50.996 A 27.857 27.857 0 0 0 111.5 47.8 Q 111.5 43.3 110.25 39.75 Q 109 36.2 106.85 33.7 Q 104.7 31.2 101.85 29.9 Q 99 28.6 95.8 28.6 A 14.741 14.741 0 0 0 90.173 29.663 A 14.054 14.054 0 0 0 88.05 30.75 Q 84.6 32.9 82.8 35.4 Z" id="1" vector-effect="non-scaling-stroke"/><path d="M 142.2 0 L 142.2 30.3 Q 145 26.2 149.25 23.5 A 17.126 17.126 0 0 1 155.79 21.077 A 22.699 22.699 0 0 1 159.4 20.8 A 23.225 23.225 0 0 1 164.465 21.318 Q 169.559 22.456 172.55 26.1 Q 176.675 31.126 176.888 39.209 A 33.764 33.764 0 0 1 176.9 40.1 L 176.9 74 L 167.9 74 L 167.9 41.1 Q 167.9 36.803 166.451 33.841 A 10.747 10.747 0 0 0 165.35 32.05 Q 162.8 28.7 158 28.7 Q 155.7 28.7 153.45 29.55 Q 151.2 30.4 149.2 31.9 A 26.152 26.152 0 0 0 145.91 34.847 A 29.423 29.423 0 0 0 145.4 35.4 Q 143.6 37.4 142.2 39.6 L 142.2 74 L 133.2 74 L 133.2 0 L 142.2 0 Z" id="2" vector-effect="non-scaling-stroke"/><path d="M 201.4 22 L 201.4 74 L 192.4 74 L 192.4 22 L 201.4 22 Z M 192.508 11.307 A 6.059 6.059 0 0 0 196.9 13.1 A 8.264 8.264 0 0 0 198.556 12.942 A 5.661 5.661 0 0 0 201.5 11.4 A 5.588 5.588 0 0 0 202.971 8.768 A 7.987 7.987 0 0 0 203.2 6.8 A 7.26 7.26 0 0 0 203.2 6.719 A 6.06 6.06 0 0 0 201.35 2.35 A 7.395 7.395 0 0 0 201.292 2.293 A 6.059 6.059 0 0 0 196.9 0.5 A 8.264 8.264 0 0 0 195.244 0.658 A 5.661 5.661 0 0 0 192.3 2.2 A 5.588 5.588 0 0 0 190.829 4.832 A 7.987 7.987 0 0 0 190.6 6.8 A 7.26 7.26 0 0 0 190.6 6.881 A 6.06 6.06 0 0 0 192.45 11.25 A 7.395 7.395 0 0 0 192.508 11.307 Z" id="3" vector-effect="non-scaling-stroke"/><path d="M 226.1 22 L 226.1 30.7 Q 228.9 26.5 233.25 23.65 A 17.316 17.316 0 0 1 240.356 21.025 A 22.629 22.629 0 0 1 243.6 20.8 A 23.225 23.225 0 0 1 248.665 21.318 Q 253.759 22.456 256.75 26.1 Q 260.875 31.126 261.088 39.209 A 33.764 33.764 0 0 1 261.1 40.1 L 261.1 74 L 252.1 74 L 252.1 41.1 Q 252.1 36.744 250.582 33.761 A 10.688 10.688 0 0 0 249.5 32.05 A 8.461 8.461 0 0 0 243.555 28.783 A 12.388 12.388 0 0 0 242.1 28.7 Q 239.8 28.7 237.6 29.55 A 18.175 18.175 0 0 0 233.897 31.513 A 20.625 20.625 0 0 0 233.35 31.9 Q 231.3 33.4 229.55 35.4 Q 227.8 37.4 226.4 39.6 L 226.4 74 L 217.4 74 L 217.4 22 L 226.1 22 Z" id="4" vector-effect="non-scaling-stroke"/><path d="M 312.2 26.2 L 312.2 22 L 320.4 22 L 320.4 61.4 A 12.15 12.15 0 0 0 320.502 63.036 Q 320.834 65.47 322.25 66.35 Q 324.1 67.5 326.3 67.5 L 324.4 74.5 A 17.722 17.722 0 0 1 320.135 74.028 Q 314.498 72.628 312.903 67.08 A 13.59 13.59 0 0 1 312.8 66.7 Q 311.6 68.3 310.05 69.85 A 18.204 18.204 0 0 1 306.756 72.444 A 20.291 20.291 0 0 1 306.5 72.6 A 17.462 17.462 0 0 1 303.367 74.067 A 20.704 20.704 0 0 1 302 74.5 A 18.765 18.765 0 0 1 298.68 75.102 A 23.457 23.457 0 0 1 296.5 75.2 Q 291.6 75.2 287.35 73.3 Q 283.1 71.4 279.95 67.9 A 24.891 24.891 0 0 1 276.093 62.12 A 30.206 30.206 0 0 1 274.95 59.45 Q 273.1 54.5 273.1 48.3 Q 273.1 42.5 274.9 37.45 A 27.784 27.784 0 0 1 278.06 31.144 A 24.797 24.797 0 0 1 279.95 28.7 Q 283.2 25 287.75 22.9 A 23.124 23.124 0 0 1 296.529 20.825 A 27.082 27.082 0 0 1 297.7 20.8 A 22.584 22.584 0 0 1 302.494 21.29 A 18.703 18.703 0 0 1 305.85 22.35 A 26.002 26.002 0 0 1 310.137 24.644 A 22.103 22.103 0 0 1 312.2 26.2 Z M 311.4 60.7 L 311.4 32.8 Q 308.7 30.9 305.45 29.75 Q 302.2 28.6 298.6 28.6 A 16.142 16.142 0 0 0 294.133 29.203 A 14.448 14.448 0 0 0 292 30 Q 289 31.4 286.85 33.95 A 17.393 17.393 0 0 0 284.343 37.953 A 21.502 21.502 0 0 0 283.5 40.1 A 23.426 23.426 0 0 0 282.417 45.381 A 28.621 28.621 0 0 0 282.3 48 A 25.723 25.723 0 0 0 282.769 52.996 A 21.781 21.781 0 0 0 283.5 55.75 A 19.283 19.283 0 0 0 285.376 59.774 A 16.545 16.545 0 0 0 286.9 61.85 Q 289.1 64.4 292.05 65.8 A 14.679 14.679 0 0 0 297.849 67.188 A 17.126 17.126 0 0 0 298.5 67.2 Q 302.3 67.2 305.7 65.4 Q 309.1 63.6 311.4 60.7 Z" id="5" vector-effect="non-scaling-stroke"/><path d="M 350.2 74 L 329.3 24.4 L 337.5 21 L 355.2 63.8 L 372.9 21 L 380.6 24.4 L 359.6 74 L 350.2 74 Z" id="6" vector-effect="non-scaling-stroke"/><path d="M 420.6 74 L 420.6 4.2 Q 424.8 3.7 429.65 3.45 A 189.812 189.812 0 0 1 436.579 3.224 A 222.326 222.326 0 0 1 439.9 3.2 Q 446.4 3.2 451.5 4.8 Q 456.6 6.4 460.1 9.2 Q 463.6 12 465.4 15.95 A 20.294 20.294 0 0 1 467.198 24.177 A 23.338 23.338 0 0 1 467.2 24.5 A 24.885 24.885 0 0 1 466.628 29.943 A 19.97 19.97 0 0 1 465.05 34.45 Q 462.9 38.8 459.05 41.8 A 25.074 25.074 0 0 1 453.329 45.113 A 31.482 31.482 0 0 1 449.8 46.35 A 39.641 39.641 0 0 1 442.62 47.682 A 49.664 49.664 0 0 1 437.9 47.9 Q 433.7 47.9 430.1 47.6 L 430.1 74 L 420.6 74 Z M 430.1 11.6 L 430.1 39.5 Q 431.2 39.637 432.607 39.751 A 95.16 95.16 0 0 0 433.95 39.85 Q 435.884 39.979 438.297 39.997 A 106.907 106.907 0 0 0 439.1 40 Q 445.2 40 449.393 38.186 A 15.072 15.072 0 0 0 452.95 36.05 A 12.849 12.849 0 0 0 457.75 26.652 A 17.917 17.917 0 0 0 457.8 25.3 A 14.619 14.619 0 0 0 457.062 20.549 A 12.131 12.131 0 0 0 453.15 15 Q 449.508 12.023 443.319 11.378 A 34.952 34.952 0 0 0 439.7 11.2 A 131.125 131.125 0 0 0 436.442 11.239 A 109.939 109.939 0 0 0 434.6 11.3 A 91.274 91.274 0 0 0 431.717 11.464 A 75.041 75.041 0 0 0 430.1 11.6 Z" id="8" vector-effect="non-scaling-stroke"/><path d="M 524.6 67.5 L 522.7 74.5 Q 517.9 74.5 515.1 72.6 A 9.552 9.552 0 0 1 511.628 68.287 A 12.398 12.398 0 0 1 511.2 67.1 Q 507.7 70.7 503.15 72.95 Q 498.6 75.2 493.2 75.2 Q 489.8 75.2 486.65 74.15 Q 483.5 73.1 481.05 70.8 Q 478.6 68.5 477.15 64.8 Q 475.7 61.1 475.7 55.8 L 475.7 22 L 484.7 22 L 484.7 54.6 Q 484.7 58.603 485.798 61.379 A 10.233 10.233 0 0 0 487.25 63.95 A 8.189 8.189 0 0 0 492.029 66.898 A 12.854 12.854 0 0 0 494.9 67.2 Q 499.1 67.2 502.9 65.55 Q 506.7 63.9 509.7 61.1 L 509.7 22 L 518.7 22 L 518.7 60.5 A 15.822 15.822 0 0 0 518.758 61.897 Q 518.87 63.159 519.2 64.05 A 7.037 7.037 0 0 0 519.636 65.013 Q 519.918 65.522 520.261 65.906 A 3.906 3.906 0 0 0 520.5 66.15 Q 521.3 66.9 522.4 67.2 Q 523.5 67.5 524.6 67.5 Z" id="9" vector-effect="non-scaling-stroke"/><path d="M 545.3 22 L 545.3 30.7 Q 548.1 26.5 552.45 23.65 A 17.316 17.316 0 0 1 559.556 21.025 A 22.629 22.629 0 0 1 562.8 20.8 A 23.225 23.225 0 0 1 567.865 21.318 Q 572.959 22.456 575.95 26.1 Q 580.075 31.126 580.288 39.209 A 33.764 33.764 0 0 1 580.3 40.1 L 580.3 74 L 571.3 74 L 571.3 41.1 Q 571.3 36.744 569.782 33.761 A 10.688 10.688 0 0 0 568.7 32.05 A 8.461 8.461 0 0 0 562.755 28.783 A 12.388 12.388 0 0 0 561.3 28.7 Q 559 28.7 556.8 29.55 A 18.175 18.175 0 0 0 553.097 31.513 A 20.625 20.625 0 0 0 552.55 31.9 Q 550.5 33.4 548.75 35.4 Q 547 37.4 545.6 39.6 L 545.6 74 L 536.6 74 L 536.6 22 L 545.3 22 Z" id="10" vector-effect="non-scaling-stroke"/><path d="M 631.4 26.2 L 631.4 22 L 639.6 22 L 639.6 61.4 A 12.15 12.15 0 0 0 639.702 63.036 Q 640.034 65.47 641.45 66.35 Q 643.3 67.5 645.5 67.5 L 643.6 74.5 A 17.722 17.722 0 0 1 639.335 74.028 Q 633.698 72.628 632.103 67.08 A 13.59 13.59 0 0 1 632 66.7 Q 630.8 68.3 629.25 69.85 A 18.204 18.204 0 0 1 625.956 72.444 A 20.291 20.291 0 0 1 625.7 72.6 A 17.462 17.462 0 0 1 622.567 74.067 A 20.704 20.704 0 0 1 621.2 74.5 A 18.765 18.765 0 0 1 617.88 75.102 A 23.457 23.457 0 0 1 615.7 75.2 Q 610.8 75.2 606.55 73.3 Q 602.3 71.4 599.15 67.9 A 24.891 24.891 0 0 1 595.293 62.12 A 30.206 30.206 0 0 1 594.15 59.45 Q 592.3 54.5 592.3 48.3 Q 592.3 42.5 594.1 37.45 A 27.784 27.784 0 0 1 597.26 31.144 A 24.797 24.797 0 0 1 599.15 28.7 Q 602.4 25 606.95 22.9 A 23.124 23.124 0 0 1 615.729 20.825 A 27.082 27.082 0 0 1 616.9 20.8 A 22.584 22.584 0 0 1 621.694 21.29 A 18.703 18.703 0 0 1 625.05 22.35 A 26.002 26.002 0 0 1 629.337 24.644 A 22.103 22.103 0 0 1 631.4 26.2 Z M 630.6 60.7 L 630.6 32.8 Q 627.9 30.9 624.65 29.75 Q 621.4 28.6 617.8 28.6 A 16.142 16.142 0 0 0 613.333 29.203 A 14.448 14.448 0 0 0 611.2 30 Q 608.2 31.4 606.05 33.95 A 17.393 17.393 0 0 0 603.543 37.953 A 21.502 21.502 0 0 0 602.7 40.1 A 23.426 23.426 0 0 0 601.617 45.381 A 28.621 28.621 0 0 0 601.5 48 A 25.723 25.723 0 0 0 601.969 52.996 A 21.781 21.781 0 0 0 602.7 55.75 A 19.283 19.283 0 0 0 604.576 59.774 A 16.545 16.545 0 0 0 606.1 61.85 Q 608.3 64.4 611.25 65.8 A 14.679 14.679 0 0 0 617.049 67.188 A 17.126 17.126 0 0 0 617.7 67.2 Q 621.5 67.2 624.9 65.4 Q 628.3 63.6 630.6 60.7 Z" id="11" vector-effect="non-scaling-stroke"/><path d="M 653 69.8 L 656.8 62.3 A 17.402 17.402 0 0 0 660.152 64.603 A 23.322 23.322 0 0 0 663.35 66 A 24.791 24.791 0 0 0 670.822 67.383 A 28.367 28.367 0 0 0 671.8 67.4 Q 677.192 67.4 680.035 65.685 A 7.738 7.738 0 0 0 680.25 65.55 Q 683.1 63.7 683.1 60.8 A 7.211 7.211 0 0 0 682.716 58.432 A 6.796 6.796 0 0 0 682.55 58 A 5.377 5.377 0 0 0 681.837 56.803 Q 681.449 56.304 680.919 55.821 A 10.185 10.185 0 0 0 680.55 55.5 A 12.59 12.59 0 0 0 679.315 54.607 Q 678.631 54.169 677.802 53.737 A 27.422 27.422 0 0 0 676.6 53.15 Q 674.92 52.377 672.564 51.492 A 115.589 115.589 0 0 0 670.1 50.6 A 47.106 47.106 0 0 1 665.846 48.945 Q 661.575 47.022 659.1 44.65 A 11.347 11.347 0 0 1 655.869 38.736 A 16.941 16.941 0 0 1 655.5 35.1 Q 655.5 32.1 656.85 29.5 A 13.242 13.242 0 0 1 659.836 25.704 A 15.791 15.791 0 0 1 660.75 24.95 A 17.33 17.33 0 0 1 664.166 22.934 A 22.664 22.664 0 0 1 666.95 21.9 A 24.963 24.963 0 0 1 671.092 21.046 A 34.316 34.316 0 0 1 675.3 20.8 Q 679.952 20.8 683.564 21.674 A 24.48 24.48 0 0 1 684.25 21.85 A 38.541 38.541 0 0 1 688.557 23.291 A 31.513 31.513 0 0 1 691.2 24.5 L 688.7 31.9 Q 686 30.3 682.55 29.3 A 25.024 25.024 0 0 0 678.067 28.453 A 31.837 31.837 0 0 0 674.9 28.3 A 20.632 20.632 0 0 0 671.963 28.495 Q 668.877 28.94 667 30.4 A 9.322 9.322 0 0 0 665.642 31.673 Q 664.94 32.492 664.605 33.365 A 4.529 4.529 0 0 0 664.3 35 A 5.568 5.568 0 0 0 664.494 36.488 A 4.93 4.93 0 0 0 664.75 37.2 Q 665.124 38.032 666.017 38.794 A 7.753 7.753 0 0 0 666.4 39.1 Q 667.6 40 669.6 40.9 A 38.11 38.11 0 0 0 671.241 41.589 Q 672.725 42.175 674.6 42.8 Q 678.352 44.102 681.224 45.432 A 45.049 45.049 0 0 1 682.9 46.25 A 27.212 27.212 0 0 1 685.615 47.841 Q 686.915 48.713 687.941 49.659 A 15.68 15.68 0 0 1 688.4 50.1 A 13.836 13.836 0 0 1 690.338 52.502 A 11.394 11.394 0 0 1 691.4 54.65 A 14.613 14.613 0 0 1 692.194 58.102 A 18.255 18.255 0 0 1 692.3 60.1 A 14.031 14.031 0 0 1 691.771 64.009 A 12.235 12.235 0 0 1 690.8 66.4 Q 689.3 69.2 686.6 71.15 A 17.953 17.953 0 0 1 683.094 73.104 A 23.774 23.774 0 0 1 680.05 74.15 Q 676.2 75.2 671.5 75.2 A 41.103 41.103 0 0 1 665.993 74.848 A 30.514 30.514 0 0 1 660.8 73.7 A 30.72 30.72 0 0 1 656.994 72.215 Q 655.025 71.283 653.444 70.133 A 18.536 18.536 0 0 1 653 69.8 Z" id="12" vector-effect="non-scaling-stroke"/><path d="M 746.4 51.7 L 710 51.7 A 24.088 24.088 0 0 0 711.139 56.725 Q 712.475 60.538 715.1 63.1 Q 719.3 67.2 726.2 67.2 Q 730.7 67.2 734.3 66.25 Q 737.9 65.3 741.2 63.8 L 743.3 71.5 A 35.406 35.406 0 0 1 738.481 73.342 A 44.267 44.267 0 0 1 735.2 74.2 A 40.711 40.711 0 0 1 730.108 74.98 A 54.607 54.607 0 0 1 725.1 75.2 A 29.178 29.178 0 0 1 719.304 74.647 A 23.608 23.608 0 0 1 715 73.35 Q 710.5 71.5 707.35 68.05 A 22.127 22.127 0 0 1 703.704 62.55 A 27.574 27.574 0 0 1 702.5 59.55 A 31.581 31.581 0 0 1 701.149 53.593 A 42.813 42.813 0 0 1 700.8 48 A 34.878 34.878 0 0 1 701.604 40.403 A 30.597 30.597 0 0 1 702.5 37.2 A 27.699 27.699 0 0 1 705.314 31.251 A 24.152 24.152 0 0 1 707.3 28.55 Q 710.4 24.9 714.7 22.85 Q 719 20.8 724.3 20.8 A 27.908 27.908 0 0 1 729.204 21.211 A 20.619 20.619 0 0 1 734.1 22.7 Q 738.3 24.6 741.1 27.9 Q 743.9 31.2 745.3 35.6 A 30.348 30.348 0 0 1 746.697 44.442 A 34.055 34.055 0 0 1 746.7 44.9 A 75.204 75.204 0 0 1 746.409 51.597 A 69.426 69.426 0 0 1 746.4 51.7 Z M 709.9 44.4 L 738.4 44.4 A 24.355 24.355 0 0 0 737.996 39.815 Q 737.5 37.231 736.396 35.207 A 12.422 12.422 0 0 0 734.6 32.7 A 12.488 12.488 0 0 0 727.639 28.924 A 18.395 18.395 0 0 0 724.1 28.6 Q 718.2 28.6 714.45 32.6 A 14.739 14.739 0 0 0 711.657 37.005 Q 710.832 38.961 710.352 41.361 A 32.287 32.287 0 0 0 709.9 44.4 Z" id="13" vector-effect="non-scaling-stroke"/></g></svg>